<svg xmlns="http://www.w3.org/2000/svg" xmlns:xlink="http://www.w3.org/1999/xlink" version="1.1" x="0px" y="0px" viewBox="0 0 500 625" enable-background="new 0 0 500 500" xml:space="preserve"><g><g><g><path d="M88.8,88.9c-33,33.2-55.9,76.5-63.4,122.9c-7.5,46.1-1.2,93,18.5,135.4c39.6,85.3,132.9,138.6,226.5,129.5     c47.6-4.6,92.3-23.5,128.6-54.7c35.4-30.4,61-72.3,72-117.6c10.7-44,8.3-91.5-7.8-133.9c-17.1-45.1-47.7-83.7-87.9-110.5     c-77.5-51.7-184.2-49.7-259.2,5.8C106.4,72.8,97.3,80.5,88.8,88.9c-5.7,5.7-5.7,15.5,0,21.2c5.8,5.8,15.4,5.7,21.2,0     c3.8-3.8,7.8-7.5,11.8-11c5.3-4.6,7.1-5.9,11.7-9.3c8.8-6.3,18.2-12,27.9-16.9c2.1-1.1,4.2-2.1,6.3-3.1c1.3-0.6,2.6-1.1,3.8-1.7     c4.1-1.9-1.6,0.6,0.9-0.4c4.9-2,9.9-3.9,15-5.5c10.1-3.3,20.4-5.8,30.8-7.6c0.9-0.2,7.3-1.1,4.2-0.7c2.7-0.4,5.5-0.7,8.2-0.9     c5.5-0.5,11-0.8,16.4-0.8c10.1-0.1,20.2,0.4,30.1,1.7c-3.4-0.4,1.1,0.2,1.5,0.2c1.4,0.2,2.7,0.4,4.1,0.7c2.3,0.4,4.5,0.8,6.8,1.3     c5.4,1.1,10.8,2.5,16.1,4c4.9,1.4,9.7,3,14.5,4.8c2.2,0.8,4.3,1.7,6.5,2.5c4.2,1.7-2.6-1.2,1.6,0.7c1.5,0.7,3,1.3,4.5,2     c20.3,9.5,36.7,20.7,51.8,34.8c7.9,7.3,15.1,15.3,21.8,23.7c3,3.7-1.6-2.3,1.2,1.5c0.8,1.2,1.7,2.3,2.5,3.5     c1.4,1.9,2.7,3.9,4.1,5.9c3.2,4.7,6.1,9.6,8.9,14.5c2.5,4.5,4.8,9.1,7,13.8c0.6,1.3,1.1,2.6,1.7,3.8c0.2,0.4,1.1,2.6,0.1,0.3     c1.3,3,2.4,6,3.5,9.1c3.5,9.5,6.2,19.3,8.3,29.2c0.6,2.7,1.1,5.4,1.5,8.1c0.2,0.9,0.3,1.8,0.4,2.7c0.1,0.4,0.7,4.9,0.2,1.5     c0.7,5.4,1.2,10.9,1.5,16.4c0.5,10.5,0.3,21.1-0.7,31.5c-0.2,2.3-0.5,4.6-0.8,6.8c0.4-3.4-0.2,1.1-0.2,1.5     c-0.1,0.9-0.3,1.8-0.4,2.7c-0.9,5.4-2,10.8-3.4,16.2c-2.6,10.3-5.9,20.5-10,30.3c1.1-2.5-0.1,0.3-0.4,0.9c-0.5,1.1-1,2.1-1.4,3.2     c-1.2,2.5-2.4,5.1-3.7,7.6c-2.5,4.8-5.1,9.5-8,14.1c-2.6,4.3-5.4,8.4-8.3,12.5c-3.3,4.6-4.8,6.5-9.3,11.7     c-7.3,8.5-15.4,16.5-23.9,23.8c-1.8,1.6-3.7,3.1-5.6,4.6c-3.7,3,2.3-1.6-1.5,1.2c-1.2,0.8-2.3,1.7-3.5,2.5     c-4.2,3-8.6,5.9-13.1,8.7c-4.4,2.7-8.9,5.2-13.5,7.6c-2.5,1.3-5,2.5-7.6,3.7c-0.8,0.4-1.7,0.8-2.5,1.2c-0.8,0.4-1.7,0.8-2.6,1.1     c1.4-0.6,1.4-0.6-0.3,0.1c-9.9,4-20,7.3-30.3,9.8c-4.7,1.1-9.4,2.1-14.2,2.9c-1.1,0.2-2.3,0.4-3.4,0.6c-0.4,0.1-4.9,0.7-1.5,0.2     c-2.7,0.4-5.5,0.7-8.2,0.9c-10.5,0.9-21,1.1-31.5,0.5c-5-0.3-10-0.8-15-1.4c3,0.4,0,0-0.8-0.1c-1.1-0.2-2.3-0.4-3.4-0.5     c-2.9-0.5-5.9-1.1-8.8-1.7c-10.2-2.2-20.1-5-29.9-8.7c-2.6-1-5.2-2-7.8-3.1c0.6,0.2,2.4,1.1-0.3-0.1c-1.3-0.6-2.6-1.1-3.8-1.7     c-5.1-2.4-10.1-4.9-15-7.7c-4.5-2.6-9-5.3-13.3-8.2c-2-1.3-3.9-2.7-5.9-4.1c-1.2-0.8-2.3-1.7-3.5-2.5c-2.7-2,0.9,0.8-1.5-1.2     c-8.8-7-17.1-14.6-24.7-22.9c-3.6-3.9-7.1-8-10.4-12.2c-3-3.7,1.6,2.3-1.2-1.5c-0.6-0.8-1.1-1.5-1.7-2.3c-2-2.7-3.9-5.4-5.7-8.2     c-5.7-8.7-10.7-17.7-15.1-27.1c-0.6-1.3-1.1-2.6-1.7-3.8c-1.9-4.2,1,2.7-0.7-1.6c-0.9-2.2-1.7-4.3-2.5-6.5     c-1.9-5.2-3.7-10.5-5.2-15.8c-1.4-4.9-2.6-9.8-3.6-14.7c-0.5-2.2-0.9-4.5-1.3-6.8c-0.2-1.4-0.5-2.7-0.7-4.1     c-0.1-0.9-0.3-1.8-0.4-2.7c0.2,1.7,0.2,1.7,0-0.1c-1.1-10-1.7-20.1-1.5-30.1c0.1-5,0.4-10.1,0.8-15.1c0.2-2.5,0.5-5,0.8-7.5     c0.3-2.7-0.6,3.6,0.1-0.8c0.3-1.8,0.6-3.6,0.9-5.4c1.8-10.2,4.3-20.3,7.6-30.1c1.5-4.6,3.2-9.2,5.1-13.7c1.7-4.2-1.2,2.6,0.7-1.6     c0.6-1.3,1.1-2.6,1.7-3.8c1.2-2.5,2.4-5.1,3.7-7.6c5-9.7,10.7-19,17.1-27.8c0.7-1,1.4-1.9,2.1-2.9c1.6-2.2-2.2,2.6,0.7-1     c1.8-2.3,3.7-4.5,5.5-6.7c3.5-4.1,7.2-8,11-11.8c5.7-5.7,5.7-15.5,0-21.2C104.2,83.2,94.5,83.2,88.8,88.9z"/></g></g><g><g><path d="M292,293.3c12.4-31.6,24.9-63.2,37.3-94.8c1.8-4.5,3.5-8.9,5.3-13.4c4.1-10.3-8.3-22.2-18.5-18.5     c-30.6,11.3-61.1,22.5-91.7,33.8c-5.5,2-11.1,4.1-16.6,6.1c-4.3,1.6-8.3,3.4-10.8,7.6c-1.1,1.9-1.7,4.1-2.3,6.2     c-5.1,16.5-10.2,33-15.2,49.5c-4.7,15.2-9.3,30.3-14,45.5c-3.3,10.8,7.7,21.8,18.5,18.5c28.5-8.8,56.9-17.5,85.4-26.3     c4.1-1.2,8.1-2.5,12.2-3.7c7.7-2.4,12.7-10.5,10.5-18.5c-2.1-7.7-10.7-12.9-18.5-10.5c-28.5,8.8-56.9,17.5-85.4,26.3     c-4.1,1.2-8.1,2.5-12.2,3.7c6.2,6.2,12.3,12.3,18.5,18.5c8.8-28.5,17.5-56.9,26.3-85.4c1.2-4.1,2.5-8.1,3.7-12.2     c-3.5,3.5-7,7-10.5,10.5c32.2-11.9,64.3-23.7,96.5-35.6c4.6-1.7,9.1-3.4,13.7-5c-6.2-6.2-12.3-12.3-18.5-18.5     c-12.4,31.6-24.9,63.2-37.3,94.8c-1.8,4.5-3.5,8.9-5.3,13.4c-2.9,7.3,3.2,16.8,10.5,18.5C282.2,305.8,288.9,301.2,292,293.3z"/></g></g></g><text x="0" y="515" fill="#000000" font-size="5px" font-weight="bold" font-family="'Helvetica Neue', Helvetica, Arial-Unicode, Arial, Sans-serif">Created by Neha Tyagi</text><text x="0" y="520" fill="#000000" font-size="5px" font-weight="bold" font-family="'Helvetica Neue', Helvetica, Arial-Unicode, Arial, Sans-serif">from the Noun Project</text></svg>